<svg width="208" height="350" viewBox="0 0 208 350" fill="none" xmlns="http://www.w3.org/2000/svg">
<g opacity="0.5">
<path fill-rule="evenodd" clip-rule="evenodd" d="M208.257 347.018C186.927 341.514 161.697 325.688 146.56 315.138C141.743 311.697 138.073 308.716 133.486 305.046C129.358 301.835 124.312 297.706 120.872 293.807C112.156 283.945 97.0183 271.56 86.2385 257.798C82.7981 253.44 78.899 249.541 75 245.183C64.4495 233.716 38.7614 202.982 30.2752 195.413C24.7706 190.367 11.9266 175.917 8.25685 169.495C-18.8074 124.771 68.1192 117.202 111.239 82.7981L163.532 28.8991C169.266 23.8532 166.514 24.0826 175.688 17.2018C183.486 11.2385 193.807 1.37616 208.257 3.89908L208.257 0L199.083 -8.02044e-07C195.642 2.29358 191.514 2.29358 184.404 6.6514C174.771 13.0734 168.807 19.0367 161.468 26.8349C158.028 30.5046 153.899 33.9449 150.688 37.8441L129.816 60.0917C122.018 66.9725 115.826 75 107.569 81.8807C92.8899 94.0367 71.5596 102.523 50.9174 111.239C37.6147 116.972 19.4954 125 9.17429 134.633C2.29355 141.055 2.98163 143.807 -2.80712e-05 147.477L-2.91741e-05 160.092C3.44034 164.908 2.5229 170.642 20.4128 189.908L85.3211 261.468C94.7247 271.101 106.651 284.862 115.826 293.119C141.972 316.972 172.018 340.367 208.257 350L208.257 347.018Z" fill="#E31E24"/>
<path fill-rule="evenodd" clip-rule="evenodd" d="M208.257 313.073C184.862 307.798 148.394 282.798 130.505 267.89L87.1559 230.046C83.4862 226.376 80.2752 222.248 77.0642 219.266C66.055 208.486 32.5688 177.982 30.2752 164.679C26.6055 144.954 56.1926 130.734 69.266 122.706C108.486 99.0824 127.982 82.11 155.963 47.0182C158.716 43.5778 163.303 39.6788 166.284 36.4678C178.211 24.0824 191.514 18.3485 208.257 25.9173L208.257 22.7063C181.881 11.4678 165.826 33.2567 154.816 44.0366L114.679 87.1558C86.9266 111.697 71.1009 116.743 41.055 137.615C34.8624 141.972 25.2293 151.835 27.2935 164.908C29.1284 176.147 41.7431 187.844 48.6238 194.954L111.697 256.193C133.027 276.147 182.339 310.78 208.257 316.055L208.257 313.073Z" fill="#E31E24"/>
<path fill-rule="evenodd" clip-rule="evenodd" d="M208.257 284.174C175.229 277.523 118.119 233.945 91.2844 209.862C78.4403 198.395 49.0825 177.064 55.5046 158.716C58.4862 149.312 72.477 138.303 80.5046 132.11C102.982 114.679 116.972 102.752 135.321 81.8808C148.624 66.7431 163.303 44.9542 181.193 39.6789C194.725 35.7798 198.853 40.5964 208.257 44.9542L208.257 41.5138C198.165 36.4679 193.807 33.0276 180.275 37.156C155.963 44.4954 138.991 77.0642 125.229 88.9909C121.56 91.9725 119.725 94.2661 116.514 97.4771C114.22 100 110.092 104.358 107.569 106.651C101.147 111.927 94.7247 117.202 87.844 122.477C77.5229 130.505 56.1926 145.642 52.2935 158.486C47.9358 172.706 60.5504 185.092 69.0367 192.89C72.0183 195.872 74.5413 199.771 77.7523 202.294L116.743 235.092C136.238 249.771 177.982 280.505 208.257 287.156L208.257 284.174Z" fill="#E31E24"/>
<path fill-rule="evenodd" clip-rule="evenodd" d="M208.257 258.486C176.147 252.294 134.633 224.312 110.321 205.963C104.816 201.835 98.3945 197.248 94.0366 192.661C86.9266 185.092 68.5779 172.707 79.8165 154.358C85.3211 145.184 100.459 130.734 108.257 122.707C111.009 120.184 113.532 118.119 116.284 115.367C130.275 101.147 150.459 71.3304 165.367 60.3212C182.798 47.7066 192.202 52.9818 208.257 61.6974L208.257 58.0276C200 54.5873 185.55 41.7433 163.991 58.0276C147.477 70.1836 139.679 85.3212 127.523 97.9359L105.734 122.018C97.477 130.275 82.5688 143.119 76.6055 154.129C64.9082 175.688 91.9724 196.101 108.257 208.028C133.027 225.918 176.147 256.652 208.257 261.468L208.257 258.486Z" fill="#E31E24"/>
<path fill-rule="evenodd" clip-rule="evenodd" d="M208.257 237.156C184.633 233.257 153.899 218.119 136.927 207.11C125.459 199.771 116.514 193.578 107.339 186.009C95.1834 175.918 91.5137 164.908 100.229 152.064C118.807 124.083 129.358 111.239 150.459 87.3854C154.587 82.5689 164.679 72.2478 169.954 69.7248C188.532 60.7799 199.541 72.7065 208.257 76.6056L208.257 73.1652C201.835 69.9542 198.394 66.2845 189.908 64.4496C169.266 59.6331 154.587 77.523 141.284 92.6606C126.376 110.092 110.78 130.963 96.5596 152.064C83.2568 171.789 105.275 189.22 119.725 199.312C143.349 215.826 177.982 234.862 208.257 240.138L208.257 237.156Z" fill="#E31E24"/>
<path fill-rule="evenodd" clip-rule="evenodd" d="M208.257 218.578C183.486 216.514 136.468 196.56 119.954 178.211C110.55 168.119 109.633 161.927 116.743 148.395C128.67 125.229 135.55 116.514 151.605 97.0184C176.376 66.9725 191.284 81.1927 208.257 90.5964L208.257 86.9267C203.899 84.8624 200.229 81.4221 194.266 79.1285C172.706 70.1835 163.073 81.4221 149.541 94.9542C146.33 98.1652 142.661 103.211 139.45 107.11C131.651 116.514 118.807 136.697 113.532 148.165C107.11 162.385 107.339 167.89 116.972 179.358C122.936 186.697 132.11 192.661 142.431 198.624C156.193 206.651 190.138 220.184 208.257 221.33L208.257 218.578Z" fill="#E31E24"/>
<path fill-rule="evenodd" clip-rule="evenodd" d="M208.257 201.835C190.367 201.835 165.596 193.807 151.835 186.468C143.578 182.11 136.238 177.064 131.651 171.33C124.083 161.468 126.376 154.587 130.734 143.119C138.532 122.936 161.009 87.1558 184.633 91.5136C195.642 93.5779 201.835 99.7705 208.257 103.899L208.257 100.229C196.33 93.5779 178.44 77.2935 157.569 98.3944C146.101 110.092 134.633 124.082 127.752 143.119C123.165 155.275 121.33 161.468 128.67 172.248C133.486 179.128 141.284 184.174 149.541 188.761C163.991 196.56 189.449 204.587 208.257 204.816L208.257 201.835Z" fill="#E31E24"/>
<path fill-rule="evenodd" clip-rule="evenodd" d="M208.257 189.22L208.257 186.009C187.844 189.449 128.899 180.275 141.972 141.284C147.018 126.147 156.881 113.532 166.743 106.651C184.174 94.4953 200.229 111.009 208.257 117.431L208.257 113.303C199.541 105.505 180.963 92.8898 165.138 104.128C155.275 111.009 144.037 125 139.22 140.138C125.459 182.11 186.238 192.66 208.257 189.22Z" fill="#E31E24"/>
<path fill-rule="evenodd" clip-rule="evenodd" d="M208.257 173.165L208.257 169.495C187.844 180.734 142.661 171.33 152.752 138.532C158.027 121.33 175.688 103.899 196.33 119.954C202.523 124.771 202.982 127.752 208.257 132.569L208.257 127.294C203.899 123.395 202.752 119.954 194.495 115.138C172.018 101.835 154.358 121.789 149.541 139.22C141.284 170.184 179.128 184.174 208.257 173.165Z" fill="#E31E24"/>
<path fill-rule="evenodd" clip-rule="evenodd" d="M202.523 145.413C206.881 171.789 158.257 166.973 161.927 141.743C163.303 133.028 172.248 122.477 183.257 124.541C191.973 126.147 200.917 136.009 202.523 145.413ZM205.046 143.349C202.523 133.257 193.349 122.018 181.422 121.33C169.495 120.642 159.633 132.34 158.945 143.349C157.34 172.248 212.615 174.771 205.046 143.349Z" fill="#E31E24"/>
<path fill-rule="evenodd" clip-rule="evenodd" d="M190.596 142.431C194.266 155.505 173.165 154.817 172.477 144.266C171.33 132.339 187.615 131.651 190.596 142.431ZM188.073 154.128C202.523 146.789 188.303 126.147 175.229 133.257C161.927 140.367 173.624 161.239 188.073 154.128Z" fill="#E31E24"/>
</g>
</svg>
