<svg width="209" height="350" viewBox="0 0 209 350" fill="none" xmlns="http://www.w3.org/2000/svg">
<path fill-rule="evenodd" clip-rule="evenodd" d="M-2.60664e-07 2.98165C21.3303 8.48624 46.5596 24.3119 61.6972 34.8624C66.5138 38.3028 70.1835 41.2844 74.7706 44.9541C78.8991 48.1651 83.9449 52.2936 87.3853 56.1927C96.1009 66.0551 111.239 78.4404 122.018 92.2018C125.459 96.5596 129.358 100.459 133.257 104.817C143.807 116.284 169.495 147.018 177.982 154.587C183.486 159.633 196.33 174.083 200 180.505C227.064 225.229 140.138 232.798 97.0183 267.202L44.7247 321.101C38.9908 326.147 41.7431 325.917 32.5688 332.798C24.7706 338.761 14.4495 348.624 -3.02571e-05 346.101L-3.0598e-05 350L9.17428 350C12.6146 347.706 16.7431 347.706 23.8532 343.349C33.4862 336.927 39.4495 330.963 46.789 323.165C50.2293 319.495 54.3578 316.055 57.5688 312.156L78.4403 289.908C86.2385 283.028 92.4312 275 100.688 268.119C115.367 255.963 136.697 247.477 157.339 238.761C170.642 233.028 188.761 225 199.083 215.367C205.963 208.945 205.275 206.193 208.257 202.523L208.257 189.908C204.816 185.092 205.734 179.358 187.844 160.092L122.936 88.5321C113.532 78.8991 101.605 65.1376 92.4312 56.8807C66.2844 33.0275 36.2385 9.63303 0 0L-2.60664e-07 2.98165Z" fill="#006834" fill-opacity="0.5"/>
<path fill-rule="evenodd" clip-rule="evenodd" d="M-2.60664e-07 36.9265C23.3945 42.2017 59.8624 67.2017 77.7523 82.11L121.101 119.954C124.771 123.624 127.982 127.752 131.193 130.734C142.202 141.514 175.688 172.018 177.982 185.321C181.651 205.046 152.064 219.266 138.991 227.293C99.7706 250.917 80.2752 267.89 52.2936 302.982C49.5413 306.422 44.9541 310.321 41.9725 313.532C30.0458 325.917 16.7431 331.651 -2.53646e-05 324.082L-2.56454e-05 327.293C26.3761 338.532 42.4312 316.743 53.4403 305.963L93.578 262.844C121.33 238.303 137.156 233.257 167.202 212.385C173.394 208.027 183.028 198.165 180.963 185.092C179.128 173.853 166.514 162.156 159.633 155.046L96.5596 93.8072C75.2294 73.8531 25.9174 39.2201 0 33.9448L-2.60664e-07 36.9265Z" fill="#006834" fill-opacity="0.5"/>
<path fill-rule="evenodd" clip-rule="evenodd" d="M-2.60664e-07 65.8259C33.0275 72.4773 90.1376 116.055 116.972 140.138C129.817 151.606 159.174 172.936 152.752 191.285C149.771 200.688 135.78 211.697 127.752 217.89C105.275 235.321 91.2844 247.248 72.9358 268.119C59.633 283.257 44.9541 305.046 27.0642 310.321C13.5321 314.22 9.40365 309.404 -2.1174e-05 305.046L-2.14747e-05 308.486C10.0917 313.532 14.4495 316.973 27.9816 312.844C52.2936 305.505 69.266 272.936 83.0275 261.009C86.6972 258.028 88.5321 255.734 91.7431 252.523C94.0367 250 98.1651 245.642 100.688 243.349C107.11 238.074 113.532 232.798 120.413 227.523C130.734 219.496 152.064 204.358 155.963 191.514C160.321 177.294 147.706 164.908 139.22 157.11C136.239 154.129 133.716 150.23 130.505 147.707L91.5138 114.908C72.0183 100.23 30.2752 69.4956 0 62.8442L-2.60664e-07 65.8259Z" fill="#006834" fill-opacity="0.5"/>
<path fill-rule="evenodd" clip-rule="evenodd" d="M-2.60664e-07 91.5139C32.1101 97.7065 73.6239 125.688 97.9358 144.037C103.44 148.165 109.862 152.752 114.22 157.34C121.33 164.908 139.679 177.294 128.44 195.642C122.936 204.817 107.798 219.266 100 227.294C97.2477 229.817 94.7248 231.881 91.9725 234.633C77.9816 248.853 57.7982 278.67 42.8899 289.679C25.4587 302.294 16.055 297.018 -1.74645e-05 288.303L-1.77853e-05 291.973C8.25686 295.413 22.7064 308.257 44.266 291.973C60.7798 279.817 68.578 264.679 80.7339 252.064L102.523 227.982C110.78 219.725 125.688 206.881 131.651 195.872C143.349 174.312 116.284 153.899 100 141.973C75.2294 124.083 32.1101 93.3487 0 88.5322L-2.60664e-07 91.5139Z" fill="#006834" fill-opacity="0.5"/>
<path fill-rule="evenodd" clip-rule="evenodd" d="M-2.60664e-07 112.844C23.6239 116.743 54.3578 131.881 71.3303 142.89C82.7982 150.229 91.7431 156.422 100.917 163.991C113.073 174.082 116.743 185.092 108.028 197.936C89.4495 225.917 78.8991 238.761 57.7982 262.615C53.6697 267.431 43.578 277.752 38.3027 280.275C19.7248 289.22 8.71558 277.294 -1.42964e-05 273.394L-1.45972e-05 276.835C6.422 280.046 9.86237 283.716 18.3486 285.55C38.9908 290.367 53.6697 272.477 66.9725 257.339C81.8807 239.908 97.4771 219.037 111.697 197.936C125 178.211 102.982 160.78 88.5321 150.688C64.9083 134.174 30.2752 115.138 0 109.862L-2.60664e-07 112.844Z" fill="#006834" fill-opacity="0.5"/>
<path fill-rule="evenodd" clip-rule="evenodd" d="M-2.40613e-07 131.422C24.7706 133.486 71.789 153.441 88.3028 171.789C97.7064 181.881 98.6239 188.074 91.5138 201.606C79.5871 224.771 72.7064 233.486 56.6514 252.982C31.8807 283.028 16.9725 268.808 -1.14291e-05 259.404L-1.17499e-05 263.074C4.35779 265.138 8.02751 268.578 13.9908 270.872C35.5504 279.817 45.1835 268.578 58.7156 255.046C61.9266 251.835 65.5963 246.789 68.8073 242.89C76.6055 233.486 89.4495 213.303 94.7248 201.835C101.147 187.615 100.917 182.11 91.2844 170.642C85.3211 163.303 76.1468 157.34 65.8257 151.376C52.0642 143.349 18.1193 129.817 0 128.67L-2.40613e-07 131.422Z" fill="#006834" fill-opacity="0.5"/>
<path fill-rule="evenodd" clip-rule="evenodd" d="M-2.60664e-07 148.165C17.8899 148.165 42.6605 156.193 56.422 163.532C64.6789 167.89 72.0183 172.936 76.6055 178.67C84.1743 188.532 81.8807 195.413 77.5229 206.881C69.7248 227.064 47.2477 262.844 23.6238 258.486C12.6147 256.422 6.42201 250.229 -8.82248e-06 246.101L-9.1433e-06 249.771C11.9266 256.422 29.8165 272.707 50.6881 251.606C62.156 239.908 73.6238 225.918 80.5046 206.881C85.0917 194.725 86.9266 188.532 79.5872 177.752C74.7706 170.872 66.9725 165.826 58.7156 161.239C44.2661 153.44 18.8073 145.413 0 145.184L-2.60664e-07 148.165Z" fill="#006834" fill-opacity="0.5"/>
<path fill-rule="evenodd" clip-rule="evenodd" d="M-5.29199e-08 160.78L-3.33635e-07 163.991C20.4128 160.55 79.3578 169.725 66.2844 208.715C61.2385 223.853 51.3761 236.468 41.5138 243.348C24.0826 255.504 8.02752 238.991 -6.32891e-06 232.569L-6.68983e-06 236.697C8.71559 244.495 27.2936 257.11 43.1193 245.871C52.9816 238.991 64.2202 225 69.0367 209.862C82.7982 167.89 22.0183 157.339 -5.29199e-08 160.78Z" fill="#006834" fill-opacity="0.5"/>
<path fill-rule="evenodd" clip-rule="evenodd" d="M-3.25793e-07 176.835L-6.46611e-07 180.505C20.4128 169.266 65.5963 178.67 55.5046 211.468C50.2294 228.67 32.5688 246.101 11.9266 230.046C5.73394 225.23 5.27523 222.248 -3.87484e-06 217.431L-4.33601e-06 222.707C4.35779 226.606 5.50458 230.046 13.7615 234.863C36.2385 248.165 53.8991 228.211 58.7156 210.78C66.9725 179.817 29.1284 165.826 -3.25793e-07 176.835Z" fill="#006834" fill-opacity="0.5"/>
<path fill-rule="evenodd" clip-rule="evenodd" d="M5.73396 204.587C1.37617 178.211 50 183.027 46.3303 208.257C44.9541 216.972 36.0092 227.523 25 225.459C16.2844 223.853 7.33947 213.991 5.73396 204.587ZM3.21103 206.651C5.73396 216.743 14.9083 227.982 26.8349 228.67C38.7615 229.358 48.6239 217.66 49.3119 206.651C50.9175 177.752 -4.35778 175.229 3.21103 206.651Z" fill="#006834" fill-opacity="0.5"/>
<path fill-rule="evenodd" clip-rule="evenodd" d="M17.6606 207.569C13.9908 194.496 35.0917 195.184 35.7798 205.734C36.9266 217.661 20.6422 218.349 17.6606 207.569ZM20.1835 195.872C5.73395 203.211 19.9541 223.853 33.0275 216.743C46.3303 209.633 34.633 188.762 20.1835 195.872Z" fill="#006834" fill-opacity="0.5"/>
</svg>
